<svg xmlns="http://www.w3.org/2000/svg" version="1.1" xmlns:xlink="http://www.w3.org/1999/xlink" width="1500" height="144" viewBox="0 0 1500 144"><svg xml:space="preserve" width="1500" height="144" data-version="2" data-id="lg_dr4mzmU0nYt7ZsNgd7" viewBox="0 0 730 144" x="0" y="0"><rect width="100%" height="100%" fill="transparent"></rect><path fill="#1c6cff" d="M318.44 138.563c6.852-2.991 10.05-2.586 15.666.365 5.675 2.954 11.319 2.954 18.01-.442 6.623-3.397 12.043-1.46 15.082.368 2.483 1.518 4.998 2.127 8.786 2.124v-13.546c-5.692-.024-8.127-1.974-8.127-1.974-5.86-3.598-11.235-2.878-18.595.95-4.231 2.2-10.904 1.622-15.668-.805-6.478-3.432-10.164-2.6-16.986.44-5.294 2.348-10.065 2.342-15.299 0-6.856-3.05-10.374-3.872-16.91-.44-4.703 2.427-11.478 3.005-15.67.806-7.399-3.83-12.676-4.55-18.522-.951 0 0-2.546 1.942-8.129 1.974v13.546c3.525.003 6.27-.681 8.642-2.124 2.995-1.846 8.59-3.764 15.225-.368 6.682 3.398 12.325 3.398 17.939.442 5.674-2.95 8.804-3.484 15.665-.514 6.655 3.394 13.238 3.083 18.89.15m49.49-32.877c-11.518-6.312-16.53 1.342-22.694 1.316v-30.6l9.515-22.039c1.456-3.365.008-6.464-3.442-7.975l-5.784-2.342V25.01h-11.197V14.979h-15.594V1.511H299.33v13.468h-15.591v10.032h-11.202v19.036l-5.784 2.342c-3.461 1.511-4.91 4.61-3.442 7.975l9.52 22.039v30.601c-6.174.027-11.44-7.51-22.696-1.242 0 0-3.233 1.82-8.127 1.905v13.178c3.825-.302 5.655-.913 8.565-2.492 3.055-1.751 8.668-3.417 15.3 0 6.684 3.371 12.326 3.371 17.94.437 5.674-2.971 10.597-3.118 15.887-.437 6.65 3.371 11.87 3.409 18.594.074 5.4-2.765 10.27-2.607 15.886.365 5.674 2.934 11.316 2.934 18.01-.437 6.623-3.417 12.21-1.703 15.302 0 2.723 1.425 4.63 2.19 8.566 2.491v-13.254c-5.004-.129-8.129-1.905-8.129-1.905M337.256 40.53l-28.262-11.639-28.188 11.639v-7.688h11.129v-9.884h34.19v9.884h11.131z"></path><path d="M61.705 100.59h-43.68q-3 0-5.51-1.46-2.5-1.46-3.95-3.96-1.46-2.5-1.46-5.5v-2.55h7.37v2.55q0 1.45 1.05 2.5 1.04 1.05 2.5 1.05h43.68q1.46 0 2.5-1.05 1.05-1.05 1.05-2.5V75.02q0-1.46-1.05-2.46-1.04-1-2.5-1h-43.68q-3 0-5.51-1.5-2.5-1.51-3.95-3.96-1.46-2.46-1.46-5.46V45.99q0-3.01 1.46-5.51 1.45-2.5 3.95-3.96 2.51-1.45 5.51-1.45h43.68q3 0 5.5 1.45 2.51 1.46 3.96 3.96 1.46 2.5 1.46 5.51v2.54h-7.37v-2.54q0-1.46-1.05-2.51-1.04-1.04-2.5-1.04h-43.68q-1.46 0-2.5 1.04-1.05 1.05-1.05 2.51v14.65q0 1.45 1.05 2.45 1.04 1.01 2.5 1.01h43.68q3 0 5.5 1.5 2.51 1.5 3.96 3.96 1.46 2.45 1.46 5.46v14.65q0 3-1.46 5.5-1.45 2.5-3.96 3.96-2.5 1.46-5.5 1.46"></path><rect width="65.52" height="65.52" x="-32.76" y="-32.76" fill="none" rx="0" ry="0" transform="translate(40.37 68.33)"></rect><path d="M135.775 100.59h-42.77q-3 0-5.5-1.5-2.5-1.51-4.01-4.01-1.5-2.5-1.5-5.5V70.47h46.23V58.82q0-1.46-1.05-2.5-1.04-1.05-2.5-1.05h-42.68v-7.46h42.68q3.1 0 5.6 1.5 2.5 1.5 4 4t1.5 5.51zm-42.77-7.47h35.22V77.93h-38.77v11.65q0 1.45 1.05 2.5 1.05 1.04 2.5 1.04"></path><rect width="53.78" height="52.78" x="-26.89" y="-26.39" fill="none" rx="0" ry="0" transform="translate(109.39 74.7)"></rect><path d="M152.705 100.59h-7.46V41.53q0-3.1 1.45-5.6 1.46-2.5 3.96-3.96 2.5-1.45 5.6-1.45h19.29v7.46h-19.29q-1.46 0-2.5 1.05-1.05 1.04-1.05 2.5v6.28h22.84v7.46h-22.84z"></path><rect width="30.3" height="70.07" x="-15.15" y="-35.03" fill="none" rx="0" ry="0" transform="translate(160.9 66.06)"></rect><path d="M193.105 100.59q-3 0-5.5-1.5-2.5-1.51-4.01-4.01-1.5-2.5-1.5-5.5V58.82q0-3.01 1.5-5.51 1.51-2.5 4.01-4t5.5-1.5h31.67q3.1 0 5.6 1.5 2.5 1.5 4 4t1.5 5.51v19.11h-46.32v11.65q0 1.45 1.05 2.5 1.05 1.04 2.5 1.04h42.77v7.47zm-3.55-41.77v11.65h38.77V58.82q0-1.46-1.05-2.5-1.04-1.05-2.5-1.05h-31.67q-1.45 0-2.5 1.05-1.05 1.04-1.05 2.5"></path><rect width="53.78" height="52.78" x="-26.89" y="-26.39" fill="none" rx="0" ry="0" transform="translate(209.49 74.7)"></rect><path d="M385.735 99.96h-7.21V35.88h7.21v28.39h51.18V35.88h7.3v64.08h-7.3V71.57h-51.18z"></path><rect width="65.69" height="64.08" x="-32.84" y="-32.04" fill="none" rx="0" ry="0" transform="translate(411.87 68.42)"></rect><path d="M506.425 99.96h-41.83q-2.94 0-5.39-1.47-2.44-1.47-3.91-3.92-1.47-2.44-1.47-5.38V70.5h45.21V59.11q0-1.43-1.02-2.45-1.03-1.02-2.45-1.02h-41.74v-7.3h41.74q3.03 0 5.47 1.47 2.45 1.47 3.92 3.91 1.47 2.45 1.47 5.39zm-41.83-7.3h34.44V77.8h-37.91v11.39q0 1.42 1.02 2.45 1.02 1.02 2.45 1.02"></path><rect width="52.6" height="51.62" x="-26.3" y="-25.81" fill="none" rx="0" ry="0" transform="translate(480.63 74.65)"></rect><path d="M522.885 99.96h-7.3V59.11q0-2.94 1.47-5.39 1.47-2.44 3.92-3.91 2.45-1.47 5.38-1.47h29.02v7.3h-29.02q-1.42 0-2.44 1.02-1.03 1.02-1.03 2.45z"></path><rect width="39.79" height="51.62" x="-19.89" y="-25.81" fill="none" rx="0" ry="0" transform="translate(535.98 74.65)"></rect><path d="M603.165 99.96h-41.83V31.43h7.3v16.91h34.53q2.94 0 5.38 1.47 2.45 1.47 3.92 3.91 1.47 2.45 1.47 5.39v30.08q0 2.94-1.47 5.38-1.47 2.45-3.92 3.92-2.44 1.47-5.38 1.47m-30.97-7.3h30.97q1.42 0 2.45-1.02 1.02-1.03 1.02-2.45V59.11q0-1.43-1.02-2.45-1.03-1.02-2.45-1.02h-30.97q-1.43 0-2.49 1.02-1.07 1.02-1.07 2.45v30.08q0 1.42 1.07 2.45 1.06 1.02 2.49 1.02"></path><rect width="52.6" height="68.53" x="-26.3" y="-34.27" fill="none" rx="0" ry="0" transform="translate(588.13 66.2)"></rect><path d="M631.205 99.96q-2.94 0-5.39-1.47-2.45-1.47-3.92-3.92-1.46-2.44-1.46-5.38V59.11q0-2.94 1.46-5.39 1.47-2.44 3.92-3.91 2.45-1.47 5.39-1.47h30.97q3.02 0 5.47 1.47 2.45 1.47 3.92 3.91 1.47 2.45 1.47 5.39v30.08q0 2.94-1.47 5.38-1.47 2.45-3.92 3.92-2.45 1.47-5.47 1.47zm0-7.3h30.97q1.42 0 2.44-1.02 1.03-1.03 1.03-2.45V59.11q0-1.43-1.03-2.45-1.02-1.02-2.44-1.02h-30.97q-1.43 0-2.45 1.02-1.03 1.02-1.03 2.45v30.08q0 1.42 1.03 2.45 1.02 1.02 2.45 1.02"></path><rect width="52.6" height="51.62" x="-26.3" y="-25.81" fill="none" rx="0" ry="0" transform="translate(647.24 74.65)"></rect><path d="M689.405 99.96h-7.3V59.11q0-2.94 1.47-5.39 1.47-2.44 3.92-3.91 2.45-1.47 5.38-1.47h29.02v7.3h-29.02q-1.42 0-2.45 1.02-1.02 1.02-1.02 2.45z"></path><rect width="39.79" height="51.62" x="-19.89" y="-25.81" fill="none" rx="0" ry="0" transform="translate(702.5 74.65)"></rect><path d="M329.634 54.538c-11.235 0-19.132-8.41-19.26-8.475-.193-.192-.385-.32-.642-.32s-.514.128-.642.32c-.128.064-7.96 8.475-19.26 8.475a.878.878 0 0 0-.899.898c0 15.922 5.521 26.643 10.144 32.87 5.007 6.742 10.015 9.695 10.208 9.823.128.065.32.129.449.129.128 0 .321-.064.45-.129.192-.128 5.2-3.081 10.207-9.822 4.623-6.228 10.144-16.949 10.144-32.87 0-.514-.45-.9-.899-.9M318.977 87.15c-3.916 5.329-7.897 8.218-9.245 9.117-1.284-.9-5.264-3.724-9.18-9.053-4.366-5.906-9.566-15.985-9.759-30.88 9.758-.385 16.82-6.356 18.939-8.41 2.119 2.054 9.18 8.025 18.939 8.346-.193 14.894-5.329 24.974-9.694 30.88m-15.472-27.413v5.842h-.578a3.59 3.59 0 0 0-3.595 3.595v12.84a3.59 3.59 0 0 0 3.595 3.595h13.546a3.59 3.59 0 0 0 3.595-3.595v-12.84a3.59 3.59 0 0 0-3.595-3.595h-11.17v-5.906c0-2.44 1.99-4.43 4.429-4.43 2.44 0 4.43 1.99 4.43 4.43v2.76c0 .514.385.899.899.899a.878.878 0 0 0 .898-.899v-2.76c0-3.467-2.824-6.228-6.227-6.228-3.403 0-6.227 2.825-6.227 6.292m14.83 9.501v12.84a1.794 1.794 0 0 1-1.798 1.798h-13.61a1.794 1.794 0 0 1-1.798-1.798V69.24c0-1.027.835-1.797 1.798-1.797h13.546c1.027 0 1.862.77 1.862 1.797m-10.336 9.566c-.386-.257-.514-.77-.386-1.22l.835-2.632c-.321-.32-.45-.706-.45-1.22 0-.963.771-1.733 1.734-1.733s1.733.77 1.733 1.733c0 .45-.192.9-.449 1.22l.835 2.632c.128.45 0 .963-.386 1.22-.385.321-1.027.514-1.733.514s-1.284-.193-1.733-.514"></path></svg></svg>